<svg width="96" height="25" viewBox="0 0 96 25" fill="none" xmlns="http://www.w3.org/2000/svg">
<path d="M5.784 19H8.328V16.048H6.864C5.76 16.048 5.472 15.64 5.472 14.56V9.496H8.328V6.52H5.472V3.112H2.112V5.296C2.112 6.136 1.896 6.52 1.128 6.52H0.192V9.496H2.112V15.304C2.112 17.56 3.312 19 5.784 19ZM18.7166 6.52V13.36C18.7166 15.208 17.8526 16.312 16.1966 16.336C14.6126 16.384 13.6046 15.448 13.6046 13.504V6.52H10.4126V13.936C10.4126 17.128 12.2606 19.24 15.4526 19.24C16.9406 19.24 18.0206 18.568 18.6686 17.632L18.8366 19H21.9086V6.52H18.7166ZM29.0809 19H31.6249V16.048H30.1609C29.0569 16.048 28.7689 15.64 28.7689 14.56V9.496H31.6249V6.52H28.7689V3.112H25.4089V5.296C25.4089 6.136 25.1929 6.52 24.4249 6.52H23.4889V9.496H25.4089V15.304C25.4089 17.56 26.6089 19 29.0809 19ZM45.69 12.568C45.69 8.752 43.218 6.28 39.498 6.28C35.778 6.28 33.282 8.872 33.282 12.76C33.282 16.672 35.778 19.264 39.522 19.264C42.666 19.264 45.042 17.512 45.594 14.92H42.21C41.826 16 40.842 16.552 39.618 16.552C38.01 16.552 36.714 15.52 36.666 13.672H45.69V12.568ZM39.498 8.896C40.962 8.896 42.186 9.736 42.33 11.464H36.69C36.834 9.736 38.058 8.896 39.498 8.896ZM51.4395 0.975999H48.0795V19H51.4395V0.975999ZM65.8116 16.552C65.4036 16.552 65.0916 16.456 65.0916 15.832V11.176C65.0916 7.504 62.2836 6.28 59.5716 6.28C56.3076 6.28 54.0036 7.984 54.0036 10.792H57.0516C57.0996 9.688 58.0356 8.944 59.4276 8.944C60.8196 8.944 61.7076 9.712 61.7076 11.104V11.656H58.3716C55.1796 11.656 53.6916 13.168 53.6916 15.4C53.6916 17.8 55.4676 19.24 58.2276 19.24C60.0756 19.24 61.5156 18.592 62.2116 17.536C62.4756 18.616 63.3876 19 64.4916 19H66.3156V16.552H65.8116ZM61.7076 14.296C61.7076 15.784 60.7476 16.6 59.0916 16.6C57.9876 16.6 57.1476 16.216 57.1476 15.184C57.1476 14.512 57.5316 13.84 58.9716 13.84H61.7076V14.296ZM77.2648 6.52L77.0008 7.984C76.2808 6.952 75.0568 6.28 73.3048 6.28C69.9448 6.28 67.6168 8.656 67.6168 12.496C67.6168 16.288 69.9208 18.712 73.2568 18.712C74.9848 18.712 76.3288 18.064 77.0008 17.032V18.52C77.0008 20.176 75.8728 21.304 73.9528 21.304C72.5848 21.304 71.5048 20.752 71.1688 19.528H67.9288C68.2648 22.24 70.6408 24.04 73.9288 24.04C77.7688 24.04 80.2888 21.76 80.2888 17.992V6.52H77.2648ZM74.0248 15.784C72.2488 15.784 71.0728 14.44 71.0728 12.52C71.0728 10.624 72.2488 9.256 74.0248 9.256C75.8248 9.256 77.0008 10.624 77.0008 12.544C77.0008 14.44 75.8248 15.784 74.0248 15.784ZM95.1197 12.568C95.1197 8.752 92.6477 6.28 88.9277 6.28C85.2077 6.28 82.7117 8.872 82.7117 12.76C82.7117 16.672 85.2077 19.264 88.9517 19.264C92.0957 19.264 94.4717 17.512 95.0237 14.92H91.6397C91.2557 16 90.2717 16.552 89.0477 16.552C87.4397 16.552 86.1437 15.52 86.0957 13.672H95.1197V12.568ZM88.9277 8.896C90.3917 8.896 91.6157 9.736 91.7597 11.464H86.1197C86.2637 9.736 87.4877 8.896 88.9277 8.896Z" fill="#0B0D21"/>
</svg>
