<svg width="18" height="18" viewBox="0 0 18 18" fill="none" xmlns="http://www.w3.org/2000/svg">
<path d="M11.1335 11.5331C11.1335 11.6392 11.0913 11.7409 11.0163 11.8159C10.9413 11.8909 10.8396 11.9331 10.7335 11.9331H4.60013C4.49405 11.9331 4.39231 11.8909 4.31729 11.8159C4.24228 11.7409 4.20013 11.6392 4.20013 11.5331V6.46641C4.20013 6.36032 4.24228 6.25858 4.31729 6.18356C4.39231 6.10855 4.49405 6.06641 4.60013 6.06641H10.7335C10.8396 6.06641 10.9413 6.10855 11.0163 6.18356C11.0913 6.25858 11.1335 6.36032 11.1335 6.46641V11.5331ZM14.3335 6.59974V11.3997L11.1335 10.0664V7.93307L14.3335 6.59974Z" stroke="#686977" stroke-miterlimit="10" stroke-linecap="round" stroke-linejoin="round"/>
<path d="M14.3333 1H3.66667C2.19391 1 1 2.19391 1 3.66667V14.3333C1 15.8061 2.19391 17 3.66667 17H14.3333C15.8061 17 17 15.8061 17 14.3333V3.66667C17 2.19391 15.8061 1 14.3333 1Z" stroke="#686977" stroke-miterlimit="10" stroke-linecap="round" stroke-linejoin="round"/>
</svg>
